<svg id="Layer_2" data-name="Layer 2" xmlns="http://www.w3.org/2000/svg" xmlns:xlink="http://www.w3.org/1999/xlink" viewBox="0 0 200 160"><defs><style>.cls-1{fill:url(#linear-gradient);}.cls-2{fill:url(#linear-gradient-2);}.cls-3{fill:#ffc31a;}.cls-4{fill:#89d6ff;}.cls-5{fill:url(#linear-gradient-3);}.cls-6{fill:#ff78b6;}.cls-7{fill:#55ef84;}</style><linearGradient id="linear-gradient" x1="142.73" y1="33.88" x2="20.77" y2="184.64" gradientUnits="userSpaceOnUse"><stop offset="0" stop-color="#ffc519"/><stop offset="0.41" stop-color="#ffac1a"/><stop offset="0.6" stop-color="#ffa218"/><stop offset="0.91" stop-color="#ff8614"/><stop offset="1" stop-color="#ff7d13"/></linearGradient><linearGradient id="linear-gradient-2" x1="101.99" y1="24.53" x2="101.99" y2="146.09" gradientUnits="userSpaceOnUse"><stop offset="0.48" stop-color="#ffe45c"/><stop offset="0.6" stop-color="#ffe257"/><stop offset="0.74" stop-color="#ffda49"/><stop offset="0.88" stop-color="#ffcf31"/><stop offset="1" stop-color="#ffc31a"/></linearGradient><linearGradient id="linear-gradient-3" x1="136.29" y1="19.91" x2="75" y2="116.29" gradientUnits="userSpaceOnUse"><stop offset="0" stop-color="#5965ef"/><stop offset="1" stop-color="#3541d6"/></linearGradient></defs><path class="cls-1" d="M189.44,143.42l-4.81.55V41.55a9.42,9.42,0,0,0-9.43-9.42H14.61l.81-5.73L7,34.53H7a9.4,9.4,0,0,0-3.15,7V144.27a9.42,9.42,0,0,0,9.42,9.42H175.2a9.38,9.38,0,0,0,7.4-3.6Z"/><rect class="cls-2" x="11.62" y="24.53" width="180.75" height="121.57" rx="9.43"/><path class="cls-3" d="M182.94,24.53H21A9.42,9.42,0,0,0,11.62,34V44.13H192.37V34A9.43,9.43,0,0,0,182.94,24.53Z"/><path class="cls-4" d="M157.49,86a9.39,9.39,0,0,1-4.24-6.58l-.71-4.59a.42.42,0,0,0-.14-.29.42.42,0,0,0-.61,0,.48.48,0,0,0-.15.29l-.7,4.59A9.48,9.48,0,0,1,146.7,86l-.61.39a.35.35,0,0,0-.15.17.5.5,0,0,0-.05.21.54.54,0,0,0,.05.22.35.35,0,0,0,.15.17l.61.39a9.48,9.48,0,0,1,4.24,6.58l.7,4.59a.45.45,0,0,0,.16.28.46.46,0,0,0,.29.11.46.46,0,0,0,.3-.11.39.39,0,0,0,.15-.28l.71-4.59a9.43,9.43,0,0,1,1.4-3.76,9.32,9.32,0,0,1,2.84-2.82l.61-.39a.35.35,0,0,0,.15-.17.54.54,0,0,0,.05-.22.5.5,0,0,0-.05-.21.35.35,0,0,0-.15-.17Z"/><path d="M121.66,79.28a19.67,19.67,0,1,0-29.6,17l-5.55,22.67a2.69,2.69,0,0,0,2.61,3.32h25.94a2.68,2.68,0,0,0,2.64-3.16l-4.36-23.74A19.63,19.63,0,0,0,121.66,79.28Z"/><path class="cls-5" d="M164.18,25.37A14,14,0,0,0,142.44,7.72a13.86,13.86,0,0,0-2.5,4.66,14,14,0,0,0-16.1,22.82l3.52,2.86L72.82,105.24,53.65,89.68l-6.37,7.84,6.6,5.36a7,7,0,1,1-4.61,6.54,7.05,7.05,0,0,1,.11-1l-6.59-5.34-6.11,7.52,29.4,23.86.33-.42L83,113.54l54.54-67.18,3.52,2.86a14,14,0,0,0,19-20.45A13.87,13.87,0,0,0,164.18,25.37ZM137.13,28a5.76,5.76,0,1,1-.84-8.11A5.76,5.76,0,0,1,137.13,28ZM154.44,42a5.81,5.81,0,1,1-.85-8.18A5.81,5.81,0,0,1,154.44,42Zm3.38-21.81A5.81,5.81,0,1,1,157,12,5.81,5.81,0,0,1,157.82,20.21Z"/><path class="cls-6" d="M178.31,54.21a12.47,12.47,0,0,1-5.67-8.79l-.94-6.13a.64.64,0,0,0-.2-.39.56.56,0,0,0-.8,0,.64.64,0,0,0-.2.39l-.95,6.13a12.56,12.56,0,0,1-1.88,5,12.85,12.85,0,0,1-3.78,3.78l-.82.52a.57.57,0,0,0-.19.22.58.58,0,0,0-.06.29.56.56,0,0,0,.06.29.6.6,0,0,0,.19.23l.82.51a12.77,12.77,0,0,1,3.78,3.79,12.56,12.56,0,0,1,1.88,5l.95,6.13a.59.59,0,0,0,.2.37.59.59,0,0,0,.4.15.6.6,0,0,0,.4-.15.59.59,0,0,0,.2-.37l.94-6.13a12.74,12.74,0,0,1,1.87-5,12.57,12.57,0,0,1,3.8-3.78l.81-.51a.63.63,0,0,0,.2-.23.68.68,0,0,0,.06-.29.72.72,0,0,0-.06-.29.6.6,0,0,0-.2-.22Z"/><path class="cls-7" d="M108.24,19.81a12.6,12.6,0,0,1-5.67-8.8l-.94-6.13a.64.64,0,0,0-.2-.39.56.56,0,0,0-.8,0,.64.64,0,0,0-.2.39L99.49,11a12.74,12.74,0,0,1-5.67,8.8l-.81.51a.69.69,0,0,0-.2.22.65.65,0,0,0-.06.3.58.58,0,0,0,.06.29.6.6,0,0,0,.2.22l.81.51a12.74,12.74,0,0,1,5.67,8.8l.94,6.13a.57.57,0,0,0,.2.37.6.6,0,0,0,.4.15.59.59,0,0,0,.4-.15.57.57,0,0,0,.2-.37l.94-6.13a12.6,12.6,0,0,1,5.67-8.8l.82-.51a.67.67,0,0,0,.19-.22.58.58,0,0,0,.06-.29.65.65,0,0,0-.06-.3.79.79,0,0,0-.19-.22Z"/></svg>