<svg id="Layer_2" data-name="Layer 2" xmlns="http://www.w3.org/2000/svg" xmlns:xlink="http://www.w3.org/1999/xlink" viewBox="0 0 200 160"><defs><style>.cls-1{fill:#e8459c;}.cls-2{fill:#3f96ef;}.cls-3{fill:#66b9ff;}.cls-4{fill:#89d6ff;}.cls-5{fill:#ff78b6;}.cls-6{fill:#fff;}.cls-7{fill:#0e19aa;}.cls-8{fill:url(#linear-gradient);}.cls-9{opacity:0.5;}.cls-10{fill:#3541d6;}.cls-11{fill:#ffe45c;}.cls-12{fill:#55ef84;}</style><linearGradient id="linear-gradient" x1="100" y1="133.68" x2="100" y2="26.32" gradientUnits="userSpaceOnUse"><stop offset="0" stop-color="#5965ef"/><stop offset="1" stop-color="#8087ff"/></linearGradient></defs><polygon class="cls-1" points="193.1 154.57 198.23 148.77 193.05 147.21 189.55 153.82 193.1 154.57"/><polygon class="cls-2" points="2.25 15.5 6.2 11.38 6.95 15.6 2.08 17.71 2.25 15.5"/><rect class="cls-2" y="14.21" width="100.77" height="76.5" rx="5.93"/><rect class="cls-3" x="4.96" y="9.08" width="100.77" height="76.5" rx="5.93"/><path class="cls-4" d="M99.79,9.08H10.89A5.93,5.93,0,0,0,5,15v6.41H105.72V15A5.93,5.93,0,0,0,99.79,9.08Z"/><rect class="cls-1" x="94.29" y="79.98" width="100.77" height="76.5" rx="5.93"/><rect class="cls-5" x="99.23" y="74.42" width="100.77" height="76.5" rx="5.93"/><path class="cls-1" d="M194.07,74.42H105.16a5.93,5.93,0,0,0-5.93,5.93v6.41H200V80.35A5.93,5.93,0,0,0,194.07,74.42Z"/><circle class="cls-6" cx="100" cy="80.44" r="26.6"/><path class="cls-7" d="M152.89,90.22l-2.57-.66-.74-.35V75.43a2,2,0,0,0-2-2H141a3,3,0,0,1-2.62-1.9L134.84,63a2.94,2.94,0,0,1,.51-3.2L140,55.14a2,2,0,0,0,0-2.83L127.71,40a2,2,0,0,0-2.83,0l-4.65,4.66a2.94,2.94,0,0,1-3.2.51l-8.54-3.53a3,3,0,0,1-1.9-2.63V32.44a2,2,0,0,0-2-2H90.89l-1-3.49L86,30.86a2,2,0,0,0-.8,1.58V39a3,3,0,0,1-1.89,2.63l-8.54,3.53a2.94,2.94,0,0,1-3.2-.51L66.91,40a2,2,0,0,0-2.83,0L51.79,52.31a2,2,0,0,0,0,2.83l4.66,4.65A3,3,0,0,1,57,63l-3.53,8.54a3,3,0,0,1-2.63,1.9H47a20.27,20.27,0,0,1-.07-3.57l-3.94,4h0a2,2,0,0,0-.79,1.58V92.81a2,2,0,0,0,2,2H50.8a3,3,0,0,1,2.63,1.9L57,105.25a3,3,0,0,1-.51,3.2l-4.66,4.66a2,2,0,0,0,0,2.83l12.29,12.29a2,2,0,0,0,2.83,0l4.66-4.66a2.94,2.94,0,0,1,3.2-.51l8.54,3.53a3,3,0,0,1,1.89,2.63v6.59a2,2,0,0,0,2,2h17.39a2,2,0,0,0,1.34-.54h0l.14-.15,3.88-4-3.37-.08v-3.83a3,3,0,0,1,1.9-2.63l8.54-3.53a2.94,2.94,0,0,1,3.2.51l4.65,4.66a2,2,0,0,0,2.83,0L140,115.94a2,2,0,0,0,0-2.83l-4.65-4.66a2.94,2.94,0,0,1-.51-3.2l3.53-8.54a3,3,0,0,1,2.62-1.9h6.59a2,2,0,0,0,1.47-.66Zm-33.16-4.16A23.91,23.91,0,1,1,94,60.28,24,24,0,0,1,119.73,86.06Z"/><path class="cls-8" d="M151.68,90.69a2,2,0,0,0,2-2V71.31a2,2,0,0,0-2-2H145.1a3,3,0,0,1-2.63-1.9l-3.53-8.54a2.94,2.94,0,0,1,.51-3.2L144.11,51a2,2,0,0,0,0-2.82l-12.3-12.3a2,2,0,0,0-2.82,0l-4.66,4.66a2.94,2.94,0,0,1-3.2.51l-8.54-3.53a3,3,0,0,1-1.9-2.63V28.32a2,2,0,0,0-2-2H91.31a2,2,0,0,0-2,2V34.9a3,3,0,0,1-1.9,2.63l-8.54,3.53a2.94,2.94,0,0,1-3.2-.51L71,35.89a2,2,0,0,0-2.82,0l-12.3,12.3a2,2,0,0,0,0,2.82l4.66,4.66a2.94,2.94,0,0,1,.51,3.2l-3.53,8.54a3,3,0,0,1-2.63,1.9H48.32a2,2,0,0,0-2,2V88.69a2,2,0,0,0,2,2H54.9a3,3,0,0,1,2.63,1.9l3.53,8.54a2.94,2.94,0,0,1-.51,3.2L55.89,109a2,2,0,0,0,0,2.82l12.3,12.3a2,2,0,0,0,2.82,0l4.66-4.66a2.94,2.94,0,0,1,3.2-.51l8.54,3.53a3,3,0,0,1,1.9,2.63v6.58a2,2,0,0,0,2,2h17.38a2,2,0,0,0,2-2V125.1a3,3,0,0,1,1.9-2.63l8.54-3.53a2.94,2.94,0,0,1,3.2.51l4.66,4.66a2,2,0,0,0,2.82,0l12.3-12.3a2,2,0,0,0,0-2.82l-4.66-4.66a2.94,2.94,0,0,1-.51-3.2l3.53-8.54a3,3,0,0,1,2.63-1.9Zm-49.74,13.15a23.92,23.92,0,1,1,21.9-21.9A23.93,23.93,0,0,1,101.94,103.84Z"/><g class="cls-9"><path class="cls-10" d="M99.6,113.33a33.47,33.47,0,1,1,33.47-33.46A33.5,33.5,0,0,1,99.6,113.33Zm0-63.93a30.47,30.47,0,1,0,30.47,30.47A30.51,30.51,0,0,0,99.6,49.4Z"/></g><path class="cls-10" d="M99.6,105.13a25.27,25.27,0,1,1,25.26-25.26A25.3,25.3,0,0,1,99.6,105.13Zm0-47.53a22.27,22.27,0,1,0,22.26,22.27A22.29,22.29,0,0,0,99.6,57.6Z"/><path class="cls-11" d="M163.73,23.47a12.47,12.47,0,0,1-5.67-8.79l-.94-6.13a.64.64,0,0,0-.2-.39.56.56,0,0,0-.8,0,.64.64,0,0,0-.2.39L155,14.68a12.61,12.61,0,0,1-1.88,5,12.85,12.85,0,0,1-3.78,3.78l-.82.52a.57.57,0,0,0-.19.22.73.73,0,0,0,0,.58.6.6,0,0,0,.19.23l.82.51a12.77,12.77,0,0,1,3.78,3.79,12.56,12.56,0,0,1,1.88,5l.95,6.13a.59.59,0,0,0,.2.37.58.58,0,0,0,.4.14.61.61,0,0,0,.4-.14.59.59,0,0,0,.2-.37l.94-6.13a12.74,12.74,0,0,1,1.87-5,12.57,12.57,0,0,1,3.8-3.78l.81-.51a.63.63,0,0,0,.2-.23.73.73,0,0,0,0-.58.6.6,0,0,0-.2-.22Z"/><path class="cls-5" d="M42,127.36a9.38,9.38,0,0,1-4.24-6.59L37,116.18a.47.47,0,0,0-.14-.29.42.42,0,0,0-.61,0,.47.47,0,0,0-.14.29l-.71,4.59a9.52,9.52,0,0,1-4.24,6.59l-.61.38a.4.4,0,0,0-.15.17.54.54,0,0,0-.05.22.59.59,0,0,0,.05.22.38.38,0,0,0,.15.16l.61.39a9.52,9.52,0,0,1,4.24,6.59l.71,4.59a.39.39,0,0,0,.15.28.4.4,0,0,0,.29.1.41.41,0,0,0,.3-.1.39.39,0,0,0,.15-.28l.71-4.59A9.38,9.38,0,0,1,42,128.9l.61-.39a.38.38,0,0,0,.15-.16.59.59,0,0,0,.05-.22.54.54,0,0,0-.05-.22.4.4,0,0,0-.15-.17Z"/><path class="cls-12" d="M176.63,53.79a9.39,9.39,0,0,1-4.24-6.58l-.71-4.59a.44.44,0,0,0-.75-.29.48.48,0,0,0-.15.29l-.7,4.59a9.53,9.53,0,0,1-4.25,6.58l-.61.39a.39.39,0,0,0-.14.17.38.38,0,0,0-.05.21.42.42,0,0,0,.05.22.39.39,0,0,0,.14.17l.61.38a9.58,9.58,0,0,1,2.83,2.84,9.42,9.42,0,0,1,1.42,3.75l.7,4.59a.45.45,0,0,0,.45.39.46.46,0,0,0,.3-.11.43.43,0,0,0,.15-.28l.71-4.59a9.38,9.38,0,0,1,4.24-6.59l.61-.38a.5.5,0,0,0,.15-.17.41.41,0,0,0,0-.22.38.38,0,0,0,0-.21.5.5,0,0,0-.15-.17Z"/></svg>